<svg xmlns="http://www.w3.org/2000/svg" viewBox="0 0 64 64">
  <rect width="64" height="64" rx="14" fill="#0d1117"/>
  <path d="M0 0h25v64H0z" fill="#006633"/>
  <path d="M25 0h10v64H25z" fill="#d4af37"/>
  <path d="M35 0h29v64H35z" fill="#9e3039"/>
  <rect x="10" y="10" width="44" height="44" rx="10" fill="#161b22" fill-opacity=".92"/>
  <path d="M41 22.5c-2.1-2-4.8-3-8.1-3-6.3 0-10.8 4.1-12 10h-3.5v4.1h3.1v1.6h-3.1v4.1h3.7c1.5 5.6 5.8 9.2 11.9 9.2 3.4 0 6.1-1 8.2-3.1l-3.2-4.2c-1.2 1.3-2.8 2-5 2-3 0-5.1-1.4-6.2-3.9h8.9v-4.1H25.9v-1.6h9.8v-4.1h-8.8c1.1-2.9 3.3-4.7 6.1-4.7 2.1 0 3.7.7 4.9 2l3.1-4.3z" fill="#ffffff"/>
</svg>
